# xmcd
#
# Track frame offsets: 
#        150
#        8720
#        15645
#        26638
#        33153
#        42870
#        53153
#        61348
#        71018
#        74933
#        79678
#        87480
#        106158
#        115585
#        121115
#        129760
#        134765
#        146745
#        158928
#        166175
#        172095
#        177940
#        193813
#        198495
#        214390
#        226065
#        233758
#        242380
#        247463
#        256570
#        268313
#        277918
#        284748
#        289898
#
# Disc length: 4006 seconds
#
# Revision: 4
# Processed by: cddbd v1.5.2PL0 Copyright (c) Steve Scherf et al.
# Submitted via: ExactAudioCopyFreeDBPlugin 1.0
#
DISCID=f80fa422
DTITLE=Lead Belly - Where Did You Sleep Last Night (Lead Belly Legacy 
DTITLE=Vol 1)
DYEAR=1996
DGENRE=Blues
TTITLE0=Irene
TTITLE1=Pick a Bale of Cotton
TTITLE2=Good Morning Blues
TTITLE3=Grey Goose
TTITLE4=In the Pines
TTITLE5=Take This Hammer
TTITLE6=On a Monday
TTITLE7=Cotton Fields
TTITLE8=Bring a Little Water Sylvie
TTITLE9=Moanin'
TTITLE10=Laura
TTITLE11=Duncan and Brady
TTITLE12=Rock Island Line
TTITLE13=Big Fat Woman
TTITLE14=New Orleans (The Rising Sun Blues)
TTITLE15=Chicken Crowing for Midnight
TTITLE16=You Can't Lose Me Cholly
TTITLE17=Sally Walker
TTITLE18=Ha Ha This a Way
TTITLE19=Yellow Gal
TTITLE20=Green Corn
TTITLE21=Let It Shine on Me
TTITLE22=Meeting at the Building
TTITLE23=In the Evening When the Sun Goes Down
TTITLE24=Pigmeat
TTITLE25=Blind Lemon
TTITLE26=Bottle Up and Go
TTITLE27=Sukey Jump (Win'jammer)
TTITLE28=Old Riley
TTITLE29=4, 5, and 9
TTITLE30=No Good Rider
TTITLE31=Shorty George
TTITLE32=Duncan and Brady (Acapella)
TTITLE33=Leaving Blues
EXTD=
EXTT0=
EXTT1=
EXTT2=
EXTT3=
EXTT4=
EXTT5=
EXTT6=
EXTT7=
EXTT8=
EXTT9=
EXTT10=
EXTT11=
EXTT12=
EXTT13=
EXTT14=
EXTT15=
EXTT16=
EXTT17=
EXTT18=
EXTT19=
EXTT20=
EXTT21=
EXTT22=
EXTT23=
EXTT24=
EXTT25=
EXTT26=
EXTT27=
EXTT28=
EXTT29=
EXTT30=
EXTT31=
EXTT32=
EXTT33=
PLAYORDER=
